# xmcd
#
# Track frame offsets:
#	150
#	18082
#	35037
#	55603
#	78281
#	98222
#	120392
#	139593
#	160808
#	180256
#	201354
#	221951
#	236884
#	250810
#	267330
#	286120
#	300985
#
# Disc length: 4292 seconds
#
# Revision: 0
# Processed by: cddbd v1.5.2PL0 Copyright (c) Steve Scherf et al.
# Submitted via: EZCDAudioConverter 1.1.0.1
#
DISCID=e110c211
DTITLE=湯寶如、劉小慧 - 音樂大全101 [CD4]
DYEAR=2011
DGENRE=Pop
TTITLE0=湯寶如 - 無顏色的夢
TTITLE1=湯寶如 - 絕對是個夢
TTITLE2=湯寶如 - 越難越愛你
TTITLE3=湯寶如 - 緣份的天空(西雅圖的失眠人)
TTITLE4=湯寶如、蘇永康 - 一起真的不易
TTITLE5=湯寶如 - 你我開始很美
TTITLE6=湯寶如 - 活著就是等待
TTITLE7=湯寶如 - 沒有回憶的冬季
TTITLE8=湯寶如 - 我和秋天有個約會
TTITLE9=劉小慧 - 改！改！(愛戀革命)
TTITLE10=劉小慧 - 驚夢
TTITLE11=劉小慧、黃凱芹 - 望星星
TTITLE12=劉小慧、周影、黎瑞恩 - 學生哥
TTITLE13=劉小慧 - 一世情緣
TTITLE14=劉小慧 - 加減乘除
TTITLE15=劉小慧、李克勤 - 如果這生
TTITLE16=劉小慧 - 初戀情人
EXTD=
EXTT0=
EXTT1=
EXTT2=
EXTT3=
EXTT4=
EXTT5=
EXTT6=
EXTT7=
EXTT8=
EXTT9=
EXTT10=
EXTT11=
EXTT12=
EXTT13=
EXTT14=
EXTT15=
EXTT16=
PLAYORDER=
